<svg width="1068" height="1089" viewBox="0 0 1068 1089" fill="none" xmlns="http://www.w3.org/2000/svg">
<rect x="110" y="71" width="698" height="1018" rx="20" fill="#E0E0E0"/>
<g filter="url(#filter0_d_211_46)">
<rect x="24" y="12" width="729" height="483" rx="30" fill="white"/>
</g>
<rect x="94.1328" y="95.2461" width="68.8633" height="314.746" rx="10" fill="#E9ECF1" fill-opacity="0.82"/>
<rect x="94.1328" y="287.236" width="68.8633" height="122.757" rx="10" fill="#0B3B7B"/>
<rect x="180.934" y="95.2461" width="68.8633" height="314.746" rx="10" fill="#E9ECF1" fill-opacity="0.82"/>
<rect x="180.934" y="326.209" width="68.8633" height="83.7842" rx="10" fill="#0B3B7B"/>
<rect x="267.734" y="95.2461" width="68.8633" height="314.746" rx="10" fill="#E9ECF1" fill-opacity="0.82"/>
<rect x="267.734" y="171.441" width="68.8633" height="238.551" rx="10" fill="#0B3B7B"/>
<rect x="354.535" y="95.2461" width="68.8633" height="314.746" rx="10" fill="#E9ECF1" fill-opacity="0.82"/>
<rect x="354.535" y="242.508" width="68.8633" height="167.484" rx="10" fill="#0B3B7B"/>
<rect x="439.332" y="95.2461" width="68.8633" height="314.746" rx="10" fill="#E9ECF1" fill-opacity="0.82"/>
<rect x="439.332" y="287.236" width="68.8633" height="122.757" rx="10" fill="#0B3B7B"/>
<rect x="527.133" y="95.2461" width="68.8633" height="314.746" rx="10" fill="#E9ECF1" fill-opacity="0.82"/>
<rect x="527.133" y="263.039" width="68.8633" height="146.954" rx="10" fill="#0B3B7B"/>
<rect x="612.934" y="95.2461" width="68.8633" height="314.746" rx="10" fill="#E9ECF1" fill-opacity="0.82"/>
<rect x="612.934" y="287.236" width="68.8633" height="122.757" rx="10" fill="#0B3B7B"/>
<g filter="url(#filter1_d_211_46)">
<rect x="43" y="580" width="674" height="452" rx="30" fill="white"/>
</g>
<path d="M645 696L113 696" stroke="black" stroke-opacity="0.2" stroke-linecap="round" stroke-dasharray="6 6"/>
<path d="M643 827L111 827" stroke="black" stroke-opacity="0.2" stroke-linecap="round" stroke-dasharray="6 6"/>
<path d="M642 961L110 961" stroke="black" stroke-opacity="0.2" stroke-linecap="round" stroke-dasharray="6 6"/>
<g opacity="0.6">
<rect x="156.011" y="734.352" width="31.375" height="227.106" rx="15.6875" fill="#E9ECF1"/>
<rect x="210.298" y="762.968" width="31.375" height="198.49" rx="15.6875" fill="#E9ECF1"/>
<rect x="264.586" y="830.836" width="31.375" height="130.622" rx="15.6875" fill="#E9ECF1"/>
<rect x="318.873" y="787.173" width="31.375" height="174.285" rx="15.6875" fill="#E9ECF1"/>
<rect x="373.161" y="748.73" width="31.375" height="212.728" rx="15.6875" fill="#E9ECF1"/>
<rect x="427.448" y="787.173" width="31.375" height="174.285" rx="15.6875" fill="#E9ECF1"/>
<rect x="481.736" y="830.836" width="31.375" height="130.622" rx="15.6875" fill="#E9ECF1"/>
<rect x="590.311" y="861.685" width="31.375" height="99.7735" rx="15.6875" fill="#E9ECF1"/>
<rect x="536.024" y="787.173" width="31.375" height="174.285" rx="15.6875" fill="#4069A0"/>
</g>
<path d="M170 790L225.467 857.45L279.624 871.027L335.964 826.353L388.374 845.186L444.277 820.659L497.997 871.027H547.786L605 903" stroke="#0B3B7B" stroke-width="4" stroke-linecap="round"/>
<circle cx="170" cy="790" r="6" fill="white" stroke="#0B3B7B" stroke-width="4"/>
<path d="M226 850C229.201 850 232 852.794 232 856.5C232 860.206 229.201 863 226 863C222.799 863 220 860.206 220 856.5C220 852.794 222.799 850 226 850Z" fill="white" stroke="#0B3B7B" stroke-width="4"/>
<path d="M280.5 865C284.206 865 287 867.799 287 871C287 874.201 284.206 877 280.5 877C276.794 877 274 874.201 274 871C274 867.799 276.794 865 280.5 865Z" fill="white" stroke="#0B3B7B" stroke-width="4"/>
<circle cx="336.5" cy="827.5" r="6.5" fill="white" stroke="#0B3B7B" stroke-width="4"/>
<circle cx="389" cy="844" r="6" fill="white" stroke="#0B3B7B" stroke-width="4"/>
<path d="M445 814C448.201 814 451 816.794 451 820.5C451 824.206 448.201 827 445 827C441.799 827 439 824.206 439 820.5C439 816.794 441.799 814 445 814Z" fill="white" stroke="#0B3B7B" stroke-width="4"/>
<path d="M497.5 864C501.206 864 504 866.799 504 870C504 873.201 501.206 876 497.5 876C493.794 876 491 873.201 491 870C491 866.799 493.794 864 497.5 864Z" fill="white" stroke="#0B3B7B" stroke-width="4"/>
<path d="M549.5 865C553.206 865 556 867.799 556 871C556 874.201 553.206 877 549.5 877C545.794 877 543 874.201 543 871C543 867.799 545.794 865 549.5 865Z" fill="white" stroke="#0B3B7B" stroke-width="4"/>
<circle cx="604.5" cy="902.5" r="6.5" fill="white" stroke="#0B3B7B" stroke-width="4"/>
<g filter="url(#filter2_d_211_46)">
<rect x="321" y="626" width="328" height="108" rx="12" fill="white"/>
<rect x="321.5" y="626.5" width="327" height="107" rx="11.5" stroke="#E4E4E9"/>
</g>
<path d="M401.422 667V664.906L406.977 659.461C407.508 658.924 407.951 658.448 408.305 658.031C408.659 657.615 408.924 657.211 409.102 656.82C409.279 656.43 409.367 656.013 409.367 655.57C409.367 655.065 409.253 654.633 409.023 654.273C408.794 653.909 408.479 653.628 408.078 653.43C407.677 653.232 407.221 653.133 406.711 653.133C406.185 653.133 405.724 653.242 405.328 653.461C404.932 653.674 404.625 653.979 404.406 654.375C404.193 654.771 404.086 655.242 404.086 655.789H401.328C401.328 654.773 401.56 653.891 402.023 653.141C402.487 652.391 403.125 651.81 403.938 651.398C404.755 650.987 405.693 650.781 406.75 650.781C407.823 650.781 408.766 650.982 409.578 651.383C410.391 651.784 411.021 652.333 411.469 653.031C411.922 653.729 412.148 654.526 412.148 655.422C412.148 656.021 412.034 656.609 411.805 657.187C411.576 657.766 411.172 658.406 410.594 659.109C410.021 659.812 409.216 660.664 408.18 661.664L405.422 664.469V664.578H412.391V667H401.422ZM421 667.305C419.714 667.305 418.609 666.979 417.688 666.328C416.771 665.672 416.065 664.727 415.57 663.492C415.081 662.253 414.836 660.76 414.836 659.016C414.841 657.271 415.089 655.786 415.578 654.562C416.073 653.333 416.779 652.396 417.695 651.75C418.617 651.104 419.719 650.781 421 650.781C422.281 650.781 423.383 651.104 424.305 651.75C425.227 652.396 425.932 653.333 426.422 654.562C426.917 655.792 427.164 657.276 427.164 659.016C427.164 660.766 426.917 662.26 426.422 663.5C425.932 664.734 425.227 665.677 424.305 666.328C423.388 666.979 422.286 667.305 421 667.305ZM421 664.859C422 664.859 422.789 664.367 423.367 663.383C423.951 662.393 424.242 660.937 424.242 659.016C424.242 657.745 424.109 656.677 423.844 655.812C423.578 654.948 423.203 654.297 422.719 653.859C422.234 653.417 421.661 653.195 421 653.195C420.005 653.195 419.219 653.69 418.641 654.68C418.063 655.664 417.771 657.109 417.766 659.016C417.76 660.292 417.888 661.365 418.148 662.234C418.414 663.104 418.789 663.76 419.273 664.203C419.758 664.641 420.333 664.859 421 664.859ZM435.674 667.305C434.387 667.305 433.283 666.979 432.361 666.328C431.445 665.672 430.739 664.727 430.244 663.492C429.755 662.253 429.51 660.76 429.51 659.016C429.515 657.271 429.762 655.786 430.252 654.562C430.747 653.333 431.452 652.396 432.369 651.75C433.291 651.104 434.393 650.781 435.674 650.781C436.955 650.781 438.057 651.104 438.979 651.75C439.9 652.396 440.606 653.333 441.096 654.562C441.59 655.792 441.838 657.276 441.838 659.016C441.838 660.766 441.59 662.26 441.096 663.5C440.606 664.734 439.9 665.677 438.979 666.328C438.062 666.979 436.96 667.305 435.674 667.305ZM435.674 664.859C436.674 664.859 437.463 664.367 438.041 663.383C438.624 662.393 438.916 660.937 438.916 659.016C438.916 657.745 438.783 656.677 438.518 655.812C438.252 654.948 437.877 654.297 437.393 653.859C436.908 653.417 436.335 653.195 435.674 653.195C434.679 653.195 433.893 653.69 433.314 654.68C432.736 655.664 432.445 657.109 432.439 659.016C432.434 660.292 432.562 661.365 432.822 662.234C433.088 663.104 433.463 663.76 433.947 664.203C434.432 664.641 435.007 664.859 435.674 664.859ZM450.348 667.305C449.061 667.305 447.957 666.979 447.035 666.328C446.118 665.672 445.413 664.727 444.918 663.492C444.428 662.253 444.184 660.76 444.184 659.016C444.189 657.271 444.436 655.786 444.926 654.562C445.421 653.333 446.126 652.396 447.043 651.75C447.965 651.104 449.066 650.781 450.348 650.781C451.629 650.781 452.73 651.104 453.652 651.75C454.574 652.396 455.28 653.333 455.77 654.562C456.264 655.792 456.512 657.276 456.512 659.016C456.512 660.766 456.264 662.26 455.77 663.5C455.28 664.734 454.574 665.677 453.652 666.328C452.736 666.979 451.634 667.305 450.348 667.305ZM450.348 664.859C451.348 664.859 452.137 664.367 452.715 663.383C453.298 662.393 453.59 660.937 453.59 659.016C453.59 657.745 453.457 656.677 453.191 655.812C452.926 654.948 452.551 654.297 452.066 653.859C451.582 653.417 451.009 653.195 450.348 653.195C449.353 653.195 448.566 653.69 447.988 654.68C447.41 655.664 447.118 657.109 447.113 659.016C447.108 660.292 447.236 661.365 447.496 662.234C447.762 663.104 448.137 663.76 448.621 664.203C449.105 664.641 449.681 664.859 450.348 664.859ZM465.021 667.305C463.735 667.305 462.631 666.979 461.709 666.328C460.792 665.672 460.087 664.727 459.592 663.492C459.102 662.253 458.857 660.76 458.857 659.016C458.863 657.271 459.11 655.786 459.6 654.562C460.094 653.333 460.8 652.396 461.717 651.75C462.639 651.104 463.74 650.781 465.021 650.781C466.303 650.781 467.404 651.104 468.326 651.75C469.248 652.396 469.954 653.333 470.443 654.562C470.938 655.792 471.186 657.276 471.186 659.016C471.186 660.766 470.938 662.26 470.443 663.5C469.954 664.734 469.248 665.677 468.326 666.328C467.41 666.979 466.308 667.305 465.021 667.305ZM465.021 664.859C466.021 664.859 466.811 664.367 467.389 663.383C467.972 662.393 468.264 660.937 468.264 659.016C468.264 657.745 468.131 656.677 467.865 655.812C467.6 654.948 467.225 654.297 466.74 653.859C466.256 653.417 465.683 653.195 465.021 653.195C464.027 653.195 463.24 653.69 462.662 654.68C462.084 655.664 461.792 657.109 461.787 659.016C461.782 660.292 461.91 661.365 462.17 662.234C462.436 663.104 462.811 663.76 463.295 664.203C463.779 664.641 464.355 664.859 465.021 664.859Z" fill="#0B3B7B"/>
<path d="M983.321 593.905C980.828 551.573 961.955 511.772 930.556 482.632C899.158 453.492 857.603 437.212 814.38 437.117L814.206 513.118C837.686 513.169 860.259 522.013 877.315 537.842C894.371 553.672 904.623 575.292 905.977 598.287L983.321 593.905Z" fill="#778197"/>
<path d="M816.752 437.139C773.535 436.451 731.681 451.975 699.739 480.541C667.797 509.107 648.177 548.559 644.888 590.838L722.136 596.622C723.922 573.655 734.58 552.224 751.931 536.707C769.283 521.189 792.019 512.756 815.495 513.13L816.752 437.139Z" fill="#495981"/>
<path d="M654.02 548.251C645.571 571.797 642.631 596.905 645.416 621.717C648.202 646.528 656.643 670.407 670.114 691.584C683.584 712.76 701.739 730.692 723.233 744.051C744.728 757.41 769.01 765.853 794.283 768.755C819.555 771.657 845.169 768.943 869.227 760.815C893.285 752.687 915.17 739.353 933.262 721.8C951.353 704.248 965.187 682.927 973.738 659.417C982.29 635.907 985.339 610.811 982.661 585.988L905.619 593.987C907.074 607.472 905.418 621.104 900.772 633.875C896.127 646.646 888.612 658.228 878.785 667.763C868.957 677.297 857.069 684.541 844 688.956C830.931 693.371 817.017 694.845 803.289 693.269C789.561 691.693 776.37 687.106 764.694 679.849C753.018 672.593 743.156 662.852 735.839 651.348C728.521 639.845 723.936 626.874 722.423 613.396C720.909 599.918 722.507 586.278 727.096 573.488L654.02 548.251Z" fill="#0B3B7B"/>
<g filter="url(#filter3_d_211_46)">
<ellipse cx="956" cy="488" rx="58" ry="57" fill="white"/>
</g>
<g filter="url(#filter4_d_211_46)">
<ellipse cx="710" cy="756" rx="58" ry="57" fill="white"/>
</g>
<path d="M692.943 763.239C692.108 763.233 691.293 763.088 690.497 762.804C689.702 762.514 688.986 762.045 688.349 761.398C687.713 760.744 687.207 759.878 686.832 758.798C686.457 757.713 686.273 756.369 686.278 754.767C686.278 753.273 686.438 751.94 686.756 750.77C687.074 749.599 687.531 748.611 688.128 747.804C688.724 746.991 689.443 746.372 690.284 745.946C691.131 745.52 692.077 745.307 693.122 745.307C694.219 745.307 695.19 745.523 696.037 745.955C696.889 746.386 697.577 746.977 698.099 747.727C698.622 748.472 698.946 749.312 699.071 750.25H695.96C695.801 749.58 695.474 749.045 694.98 748.648C694.491 748.244 693.872 748.043 693.122 748.043C691.912 748.043 690.98 748.568 690.327 749.619C689.679 750.67 689.352 752.114 689.347 753.949H689.466C689.744 753.449 690.105 753.02 690.548 752.662C690.991 752.304 691.491 752.028 692.048 751.835C692.611 751.636 693.205 751.537 693.83 751.537C694.852 751.537 695.77 751.781 696.582 752.27C697.401 752.759 698.048 753.432 698.526 754.29C699.003 755.142 699.239 756.119 699.233 757.222C699.239 758.369 698.977 759.401 698.449 760.315C697.92 761.224 697.185 761.94 696.241 762.463C695.298 762.986 694.199 763.244 692.943 763.239ZM692.926 760.682C693.545 760.682 694.099 760.531 694.588 760.23C695.077 759.929 695.463 759.523 695.747 759.011C696.031 758.5 696.17 757.926 696.165 757.29C696.17 756.665 696.034 756.099 695.756 755.594C695.483 755.088 695.105 754.687 694.622 754.392C694.139 754.097 693.588 753.949 692.969 753.949C692.509 753.949 692.08 754.037 691.682 754.213C691.284 754.389 690.938 754.634 690.642 754.946C690.347 755.253 690.114 755.611 689.943 756.02C689.778 756.423 689.693 756.855 689.688 757.315C689.693 757.923 689.835 758.483 690.114 758.994C690.392 759.506 690.776 759.915 691.264 760.222C691.753 760.528 692.307 760.682 692.926 760.682ZM708.565 763.332C707.162 763.332 705.957 762.977 704.952 762.267C703.952 761.551 703.182 760.52 702.642 759.173C702.108 757.821 701.841 756.193 701.841 754.29C701.847 752.386 702.116 750.767 702.651 749.432C703.19 748.091 703.96 747.068 704.96 746.364C705.966 745.659 707.168 745.307 708.565 745.307C709.963 745.307 711.165 745.659 712.17 746.364C713.176 747.068 713.946 748.091 714.48 749.432C715.02 750.773 715.29 752.392 715.29 754.29C715.29 756.199 715.02 757.83 714.48 759.182C713.946 760.528 713.176 761.557 712.17 762.267C711.17 762.977 709.969 763.332 708.565 763.332ZM708.565 760.665C709.656 760.665 710.517 760.128 711.148 759.054C711.784 757.974 712.102 756.386 712.102 754.29C712.102 752.903 711.957 751.739 711.668 750.795C711.378 749.852 710.969 749.142 710.44 748.665C709.912 748.182 709.287 747.94 708.565 747.94C707.48 747.94 706.622 748.48 705.991 749.56C705.361 750.634 705.043 752.21 705.037 754.29C705.031 755.682 705.17 756.852 705.455 757.801C705.744 758.75 706.153 759.466 706.682 759.949C707.21 760.426 707.838 760.665 708.565 760.665ZM727.454 759.727V758.807C727.454 758.131 727.596 757.509 727.88 756.94C728.17 756.372 728.59 755.915 729.141 755.568C729.692 755.222 730.36 755.048 731.144 755.048C731.951 755.048 732.627 755.222 733.173 755.568C733.718 755.909 734.13 756.364 734.408 756.932C734.692 757.5 734.835 758.125 734.835 758.807V759.727C734.835 760.403 734.692 761.026 734.408 761.594C734.124 762.162 733.707 762.619 733.156 762.966C732.61 763.313 731.94 763.486 731.144 763.486C730.349 763.486 729.675 763.313 729.124 762.966C728.573 762.619 728.156 762.162 727.871 761.594C727.593 761.026 727.454 760.403 727.454 759.727ZM729.678 758.807V759.727C729.678 760.176 729.786 760.588 730.002 760.963C730.218 761.338 730.599 761.526 731.144 761.526C731.695 761.526 732.073 761.341 732.278 760.972C732.488 760.597 732.593 760.182 732.593 759.727V758.807C732.593 758.352 732.494 757.938 732.295 757.562C732.096 757.182 731.712 756.991 731.144 756.991C730.61 756.991 730.232 757.182 730.011 757.562C729.789 757.938 729.678 758.352 729.678 758.807ZM718.582 749.739V748.818C718.582 748.136 718.727 747.511 719.016 746.943C719.306 746.375 719.727 745.92 720.278 745.58C720.829 745.233 721.496 745.06 722.281 745.06C723.082 745.06 723.755 745.233 724.3 745.58C724.852 745.92 725.266 746.375 725.545 746.943C725.823 747.511 725.962 748.136 725.962 748.818V749.739C725.962 750.42 725.82 751.045 725.536 751.614C725.258 752.176 724.843 752.628 724.292 752.969C723.741 753.31 723.07 753.48 722.281 753.48C721.479 753.48 720.803 753.31 720.252 752.969C719.707 752.628 719.292 752.173 719.008 751.605C718.724 751.037 718.582 750.415 718.582 749.739ZM720.823 748.818V749.739C720.823 750.193 720.928 750.608 721.138 750.983C721.354 751.352 721.735 751.537 722.281 751.537C722.826 751.537 723.201 751.352 723.406 750.983C723.616 750.608 723.721 750.193 723.721 749.739V748.818C723.721 748.364 723.621 747.949 723.423 747.574C723.224 747.193 722.843 747.003 722.281 747.003C721.741 747.003 721.363 747.193 721.147 747.574C720.931 747.955 720.823 748.369 720.823 748.818ZM719.553 763L731.553 745.545H733.684L721.684 763H719.553Z" fill="black"/>
<path d="M929.551 495V492.716L935.611 486.776C936.19 486.19 936.673 485.67 937.06 485.216C937.446 484.761 937.736 484.321 937.929 483.895C938.122 483.469 938.219 483.014 938.219 482.531C938.219 481.98 938.094 481.509 937.844 481.116C937.594 480.719 937.25 480.412 936.812 480.196C936.375 479.98 935.878 479.872 935.321 479.872C934.747 479.872 934.244 479.991 933.812 480.23C933.381 480.463 933.045 480.795 932.807 481.227C932.574 481.659 932.457 482.173 932.457 482.77H929.449C929.449 481.662 929.702 480.699 930.207 479.881C930.713 479.062 931.409 478.429 932.295 477.98C933.188 477.531 934.21 477.307 935.364 477.307C936.534 477.307 937.563 477.526 938.449 477.963C939.335 478.401 940.023 479 940.511 479.761C941.006 480.523 941.253 481.392 941.253 482.369C941.253 483.023 941.128 483.665 940.878 484.295C940.628 484.926 940.188 485.625 939.557 486.392C938.932 487.159 938.054 488.088 936.923 489.179L933.915 492.239V492.358H941.517V495H929.551ZM950.909 495.332C949.506 495.332 948.301 494.977 947.295 494.267C946.295 493.551 945.526 492.52 944.986 491.173C944.452 489.821 944.185 488.193 944.185 486.29C944.19 484.386 944.46 482.767 944.994 481.432C945.534 480.091 946.304 479.068 947.304 478.364C948.31 477.659 949.511 477.307 950.909 477.307C952.307 477.307 953.509 477.659 954.514 478.364C955.52 479.068 956.29 480.091 956.824 481.432C957.364 482.773 957.634 484.392 957.634 486.29C957.634 488.199 957.364 489.83 956.824 491.182C956.29 492.528 955.52 493.557 954.514 494.267C953.514 494.977 952.313 495.332 950.909 495.332ZM950.909 492.665C952 492.665 952.861 492.128 953.491 491.054C954.128 489.974 954.446 488.386 954.446 486.29C954.446 484.903 954.301 483.739 954.011 482.795C953.722 481.852 953.313 481.142 952.784 480.665C952.256 480.182 951.631 479.94 950.909 479.94C949.824 479.94 948.966 480.48 948.335 481.56C947.705 482.634 947.386 484.21 947.381 486.29C947.375 487.682 947.514 488.852 947.798 489.801C948.088 490.75 948.497 491.466 949.026 491.949C949.554 492.426 950.182 492.665 950.909 492.665ZM969.798 491.727V490.807C969.798 490.131 969.94 489.509 970.224 488.94C970.513 488.372 970.934 487.915 971.485 487.568C972.036 487.222 972.704 487.048 973.488 487.048C974.295 487.048 974.971 487.222 975.516 487.568C976.062 487.909 976.474 488.364 976.752 488.932C977.036 489.5 977.178 490.125 977.178 490.807V491.727C977.178 492.403 977.036 493.026 976.752 493.594C976.468 494.162 976.05 494.619 975.499 494.966C974.954 495.313 974.283 495.486 973.488 495.486C972.692 495.486 972.019 495.313 971.468 494.966C970.917 494.619 970.499 494.162 970.215 493.594C969.937 493.026 969.798 492.403 969.798 491.727ZM972.022 490.807V491.727C972.022 492.176 972.13 492.588 972.346 492.963C972.562 493.338 972.942 493.526 973.488 493.526C974.039 493.526 974.417 493.341 974.621 492.972C974.832 492.597 974.937 492.182 974.937 491.727V490.807C974.937 490.352 974.837 489.938 974.638 489.562C974.44 489.182 974.056 488.991 973.488 488.991C972.954 488.991 972.576 489.182 972.354 489.562C972.133 489.938 972.022 490.352 972.022 490.807ZM960.925 481.739V480.818C960.925 480.136 961.07 479.511 961.36 478.943C961.65 478.375 962.07 477.92 962.621 477.58C963.173 477.233 963.84 477.06 964.624 477.06C965.425 477.06 966.099 477.233 966.644 477.58C967.195 477.92 967.61 478.375 967.888 478.943C968.167 479.511 968.306 480.136 968.306 480.818V481.739C968.306 482.42 968.164 483.045 967.88 483.614C967.602 484.176 967.187 484.628 966.636 484.969C966.085 485.31 965.414 485.48 964.624 485.48C963.823 485.48 963.147 485.31 962.596 484.969C962.05 484.628 961.636 484.173 961.352 483.605C961.067 483.037 960.925 482.415 960.925 481.739ZM963.167 480.818V481.739C963.167 482.193 963.272 482.608 963.482 482.983C963.698 483.352 964.079 483.537 964.624 483.537C965.17 483.537 965.545 483.352 965.749 482.983C965.96 482.608 966.065 482.193 966.065 481.739V480.818C966.065 480.364 965.965 479.949 965.766 479.574C965.567 479.193 965.187 479.003 964.624 479.003C964.085 479.003 963.707 479.193 963.491 479.574C963.275 479.955 963.167 480.369 963.167 480.818ZM961.897 495L973.897 477.545H976.028L964.028 495H961.897Z" fill="black"/>
<path opacity="0.5" d="M402.026 690.273H404.443L410.128 704.158H410.324L416.009 690.273H418.426V707H416.531V694.291H416.368L411.141 707H409.311L404.084 694.291H403.92V707H402.026V690.273ZM427.323 707.261C426.19 707.261 425.196 706.992 424.342 706.453C423.492 705.914 422.828 705.16 422.349 704.19C421.875 703.221 421.638 702.089 421.638 700.793C421.638 699.486 421.875 698.345 422.349 697.37C422.828 696.396 423.492 695.639 424.342 695.1C425.196 694.561 426.19 694.291 427.323 694.291C428.455 694.291 429.446 694.561 430.296 695.1C431.151 695.639 431.815 696.396 432.289 697.37C432.768 698.345 433.007 699.486 433.007 700.793C433.007 702.089 432.768 703.221 432.289 704.19C431.815 705.16 431.151 705.914 430.296 706.453C429.446 706.992 428.455 707.261 427.323 707.261ZM427.323 705.53C428.183 705.53 428.891 705.309 429.446 704.868C430.002 704.427 430.413 703.847 430.68 703.129C430.946 702.41 431.08 701.631 431.08 700.793C431.08 699.954 430.946 699.173 430.68 698.449C430.413 697.724 430.002 697.139 429.446 696.692C428.891 696.246 428.183 696.023 427.323 696.023C426.462 696.023 425.755 696.246 425.199 696.692C424.644 697.139 424.233 697.724 423.966 698.449C423.699 699.173 423.566 699.954 423.566 700.793C423.566 701.631 423.699 702.41 423.966 703.129C424.233 703.847 424.644 704.427 425.199 704.868C425.755 705.309 426.462 705.53 427.323 705.53ZM437.877 699.453V707H435.95V694.455H437.812V696.415H437.975C438.269 695.778 438.716 695.266 439.315 694.879C439.914 694.487 440.687 694.291 441.634 694.291C442.484 694.291 443.227 694.465 443.864 694.814C444.501 695.157 444.997 695.68 445.351 696.382C445.705 697.079 445.882 697.961 445.882 699.028V707H443.954V699.159C443.954 698.174 443.698 697.406 443.186 696.856C442.674 696.3 441.972 696.023 441.079 696.023C440.464 696.023 439.914 696.156 439.429 696.423C438.95 696.69 438.572 697.079 438.294 697.591C438.016 698.103 437.877 698.723 437.877 699.453ZM454.141 707.261C453.096 707.261 452.173 706.997 451.372 706.469C450.572 705.935 449.946 705.184 449.494 704.215C449.042 703.24 448.816 702.089 448.816 700.76C448.816 699.442 449.042 698.299 449.494 697.33C449.946 696.36 450.575 695.612 451.38 695.083C452.186 694.555 453.117 694.291 454.174 694.291C454.991 694.291 455.636 694.427 456.109 694.7C456.589 694.966 456.953 695.271 457.204 695.614C457.46 695.952 457.659 696.23 457.8 696.447H457.964V690.273H459.891V707H458.029V705.072H457.8C457.659 705.301 457.457 705.59 457.196 705.938C456.934 706.281 456.561 706.589 456.077 706.861C455.592 707.128 454.947 707.261 454.141 707.261ZM454.402 705.53C455.176 705.53 455.829 705.328 456.363 704.925C456.896 704.517 457.302 703.953 457.58 703.235C457.857 702.511 457.996 701.675 457.996 700.727C457.996 699.791 457.86 698.971 457.588 698.269C457.316 697.561 456.913 697.011 456.379 696.619C455.845 696.221 455.187 696.023 454.402 696.023C453.586 696.023 452.905 696.232 452.361 696.652C451.821 697.065 451.416 697.629 451.144 698.342C450.877 699.05 450.743 699.845 450.743 700.727C450.743 701.62 450.879 702.432 451.152 703.161C451.429 703.885 451.838 704.463 452.377 704.893C452.921 705.317 453.597 705.53 454.402 705.53ZM467.381 707.294C466.586 707.294 465.864 707.144 465.216 706.845C464.568 706.54 464.054 706.102 463.673 705.53C463.292 704.953 463.101 704.256 463.101 703.439C463.101 702.72 463.243 702.138 463.526 701.691C463.809 701.239 464.187 700.885 464.661 700.629C465.135 700.373 465.657 700.183 466.229 700.058C466.806 699.927 467.386 699.823 467.969 699.747C468.731 699.649 469.349 699.576 469.823 699.527C470.302 699.472 470.651 699.382 470.868 699.257C471.092 699.132 471.203 698.914 471.203 698.604V698.538C471.203 697.732 470.983 697.106 470.542 696.66C470.106 696.213 469.444 695.99 468.557 695.99C467.637 695.99 466.915 696.192 466.392 696.594C465.87 696.997 465.502 697.428 465.29 697.885L463.46 697.232C463.787 696.469 464.223 695.876 464.767 695.451C465.317 695.021 465.916 694.721 466.564 694.553C467.217 694.378 467.86 694.291 468.492 694.291C468.895 694.291 469.357 694.34 469.88 694.438C470.408 694.531 470.917 694.724 471.407 695.018C471.903 695.312 472.314 695.756 472.641 696.349C472.967 696.943 473.131 697.738 473.131 698.734V707H471.203V705.301H471.105C470.975 705.573 470.757 705.865 470.452 706.175C470.147 706.485 469.741 706.75 469.235 706.967C468.728 707.185 468.11 707.294 467.381 707.294ZM467.675 705.562C468.437 705.562 469.08 705.413 469.602 705.113C470.131 704.814 470.528 704.427 470.795 703.953C471.067 703.48 471.203 702.982 471.203 702.459V700.695C471.122 700.793 470.942 700.882 470.664 700.964C470.392 701.04 470.076 701.108 469.717 701.168C469.363 701.223 469.017 701.272 468.679 701.315C468.347 701.353 468.078 701.386 467.871 701.413C467.37 701.479 466.902 701.585 466.466 701.732C466.036 701.873 465.687 702.089 465.421 702.377C465.159 702.66 465.028 703.047 465.028 703.537C465.028 704.207 465.276 704.713 465.772 705.056C466.273 705.394 466.907 705.562 467.675 705.562ZM477.441 711.705C477.115 711.705 476.823 711.677 476.567 711.623C476.311 711.574 476.134 711.525 476.036 711.476L476.526 709.777C476.995 709.897 477.409 709.94 477.768 709.908C478.127 709.875 478.446 709.714 478.724 709.426C479.007 709.143 479.265 708.683 479.499 708.045L479.859 707.065L475.22 694.455H477.311L480.774 704.452H480.904L484.367 694.455H486.458L481.133 708.83C480.893 709.478 480.597 710.014 480.243 710.439C479.889 710.869 479.478 711.187 479.009 711.394C478.547 711.601 478.024 711.705 477.441 711.705ZM491.091 704.713L490.961 705.595C490.868 706.216 490.727 706.88 490.536 707.588C490.351 708.296 490.158 708.963 489.956 709.589C489.755 710.215 489.589 710.714 489.458 711.084H487.988C488.058 710.735 488.151 710.275 488.265 709.703C488.38 709.132 488.494 708.492 488.608 707.784C488.728 707.082 488.826 706.363 488.902 705.628L489 704.713H491.091ZM502.079 707H499.955L506.097 690.273H508.188L514.33 707H512.207L507.208 692.919H507.077L502.079 707ZM502.863 700.466H511.423V702.263H502.863V700.466ZM516.674 711.705V694.455H518.537V696.447H518.765C518.907 696.23 519.103 695.952 519.353 695.614C519.609 695.271 519.974 694.966 520.448 694.7C520.927 694.427 521.575 694.291 522.392 694.291C523.448 694.291 524.379 694.555 525.185 695.083C525.991 695.612 526.62 696.36 527.072 697.33C527.524 698.299 527.75 699.442 527.75 700.76C527.75 702.089 527.524 703.24 527.072 704.215C526.62 705.184 525.994 705.935 525.193 706.469C524.393 706.997 523.47 707.261 522.424 707.261C521.618 707.261 520.973 707.128 520.489 706.861C520.004 706.589 519.631 706.281 519.37 705.938C519.108 705.59 518.907 705.301 518.765 705.072H518.602V711.705H516.674ZM518.569 700.727C518.569 701.675 518.708 702.511 518.986 703.235C519.263 703.953 519.669 704.517 520.203 704.925C520.736 705.328 521.39 705.53 522.163 705.53C522.969 705.53 523.641 705.317 524.18 704.893C524.725 704.463 525.133 703.885 525.406 703.161C525.683 702.432 525.822 701.62 525.822 700.727C525.822 699.845 525.686 699.05 525.414 698.342C525.147 697.629 524.741 697.065 524.197 696.652C523.658 696.232 522.98 696.023 522.163 696.023C521.379 696.023 520.72 696.221 520.186 696.619C519.653 697.011 519.25 697.561 518.978 698.269C518.705 698.971 518.569 699.791 518.569 700.727ZM530.69 707V694.455H532.552V696.349H532.683C532.912 695.729 533.325 695.225 533.924 694.838C534.523 694.452 535.199 694.259 535.95 694.259C536.092 694.259 536.268 694.261 536.481 694.267C536.693 694.272 536.854 694.28 536.963 694.291V696.251C536.897 696.235 536.748 696.211 536.513 696.178C536.285 696.14 536.042 696.121 535.787 696.121C535.177 696.121 534.632 696.249 534.153 696.505C533.679 696.755 533.304 697.104 533.026 697.55C532.754 697.991 532.618 698.495 532.618 699.061V707H530.69ZM539.248 707V694.455H541.175V707H539.248ZM540.228 692.364C539.852 692.364 539.528 692.236 539.256 691.98C538.989 691.724 538.856 691.416 538.856 691.057C538.856 690.697 538.989 690.39 539.256 690.134C539.528 689.878 539.852 689.75 540.228 689.75C540.603 689.75 540.925 689.878 541.191 690.134C541.464 690.39 541.6 690.697 541.6 691.057C541.6 691.416 541.464 691.724 541.191 691.98C540.925 692.236 540.603 692.364 540.228 692.364ZM546.633 690.273V707H544.706V690.273H546.633ZM556.6 707V705.53L562.121 699.486C562.769 698.778 563.303 698.163 563.722 697.64C564.141 697.112 564.451 696.616 564.653 696.153C564.86 695.685 564.963 695.195 564.963 694.683C564.963 694.095 564.822 693.586 564.539 693.156C564.261 692.726 563.88 692.394 563.395 692.159C562.911 691.925 562.366 691.808 561.762 691.808C561.119 691.808 560.558 691.942 560.079 692.208C559.605 692.47 559.238 692.837 558.976 693.311C558.721 693.785 558.593 694.34 558.593 694.977H556.665C556.665 693.997 556.891 693.137 557.343 692.396C557.795 691.656 558.41 691.079 559.189 690.665C559.973 690.251 560.852 690.044 561.827 690.044C562.807 690.044 563.676 690.251 564.432 690.665C565.189 691.079 565.783 691.637 566.213 692.339C566.643 693.042 566.858 693.823 566.858 694.683C566.858 695.299 566.747 695.9 566.523 696.488C566.306 697.071 565.924 697.722 565.38 698.44C564.841 699.154 564.092 700.025 563.134 701.054L559.377 705.072V705.203H567.152V707H556.6ZM570.525 707V705.53L576.047 699.486C576.695 698.778 577.228 698.163 577.648 697.64C578.067 697.112 578.377 696.616 578.579 696.153C578.786 695.685 578.889 695.195 578.889 694.683C578.889 694.095 578.748 693.586 578.464 693.156C578.187 692.726 577.806 692.394 577.321 692.159C576.836 691.925 576.292 691.808 575.687 691.808C575.045 691.808 574.484 691.942 574.005 692.208C573.531 692.47 573.164 692.837 572.902 693.311C572.646 693.785 572.518 694.34 572.518 694.977H570.591C570.591 693.997 570.817 693.137 571.269 692.396C571.721 691.656 572.336 691.079 573.115 690.665C573.899 690.251 574.778 690.044 575.753 690.044C576.733 690.044 577.601 690.251 578.358 690.665C579.115 691.079 579.709 691.637 580.139 692.339C580.569 693.042 580.784 693.823 580.784 694.683C580.784 695.299 580.672 695.9 580.449 696.488C580.231 697.071 579.85 697.722 579.306 698.44C578.767 699.154 578.018 700.025 577.06 701.054L573.302 705.072V705.203H581.078V707H570.525ZM586.411 699.453V707H584.484V694.455H586.346V696.415H586.509C586.804 695.778 587.25 695.266 587.849 694.879C588.448 694.487 589.221 694.291 590.169 694.291C591.018 694.291 591.761 694.465 592.398 694.814C593.035 695.157 593.531 695.68 593.885 696.382C594.239 697.079 594.416 697.961 594.416 699.028V707H592.488V699.159C592.488 698.174 592.232 697.406 591.72 696.856C591.209 696.3 590.506 696.023 589.613 696.023C588.998 696.023 588.448 696.156 587.963 696.423C587.484 696.69 587.106 697.079 586.828 697.591C586.55 698.103 586.411 698.723 586.411 699.453ZM602.675 707.261C601.63 707.261 600.707 706.997 599.906 706.469C599.106 705.935 598.48 705.184 598.028 704.215C597.576 703.24 597.35 702.089 597.35 700.76C597.35 699.442 597.576 698.299 598.028 697.33C598.48 696.36 599.109 695.612 599.915 695.083C600.72 694.555 601.652 694.291 602.708 694.291C603.525 694.291 604.17 694.427 604.644 694.7C605.123 694.966 605.488 695.271 605.738 695.614C605.994 695.952 606.193 696.23 606.334 696.447H606.498V690.273H608.425V707H606.563V705.072H606.334C606.193 705.301 605.991 705.59 605.73 705.938C605.469 706.281 605.096 706.589 604.611 706.861C604.126 707.128 603.481 707.261 602.675 707.261ZM602.937 705.53C603.71 705.53 604.363 705.328 604.897 704.925C605.43 704.517 605.836 703.953 606.114 703.235C606.392 702.511 606.53 701.675 606.53 700.727C606.53 699.791 606.394 698.971 606.122 698.269C605.85 697.561 605.447 697.011 604.913 696.619C604.38 696.221 603.721 696.023 602.937 696.023C602.12 696.023 601.439 696.232 600.895 696.652C600.356 697.065 599.95 697.629 599.678 698.342C599.411 699.05 599.278 699.845 599.278 700.727C599.278 701.62 599.414 702.432 599.686 703.161C599.964 703.885 600.372 704.463 600.911 704.893C601.456 705.317 602.131 705.53 602.937 705.53Z" fill="black"/>
<path d="M361.175 657.289C371.863 657.289 380.527 665.954 380.527 676.642C380.527 687.329 371.863 695.994 361.175 695.994C350.487 695.994 341.822 687.329 341.822 676.642C341.822 665.954 350.487 657.289 361.175 657.289ZM353.142 679.517C353.142 683.953 356.738 687.625 361.175 687.625C365.612 687.625 369.209 683.954 369.209 679.517H353.142ZM355.77 670.508C354.318 670.508 353.142 671.684 353.142 673.135C353.142 674.586 354.318 675.763 355.77 675.763C357.221 675.762 358.397 674.586 358.397 673.135C358.397 671.684 357.221 670.508 355.77 670.508ZM366.581 670.508C365.13 670.508 363.953 671.684 363.953 673.135C363.953 674.586 365.13 675.763 366.581 675.763C368.032 675.763 369.209 674.586 369.209 673.135C369.209 671.684 368.032 670.508 366.581 670.508Z" fill="#0B3B7B"/>
<rect x="94" y="430" width="68" height="24" rx="12" fill="#E9ECF1"/>
<rect x="181" y="430" width="68" height="24" rx="12" fill="#E9ECF1"/>
<rect x="440" y="430" width="68" height="24" rx="12" fill="#E9ECF1"/>
<rect x="528" y="430" width="68" height="24" rx="12" fill="#E9ECF1"/>
<rect x="613" y="430" width="68" height="24" rx="12" fill="#E9ECF1"/>
<rect x="269" y="430" width="68" height="24" rx="12" fill="#E9ECF1"/>
<rect x="355" y="430" width="68" height="24" rx="12" fill="#E9ECF1"/>
<g filter="url(#filter5_d_211_46)">
<ellipse cx="710" cy="446.5" rx="58" ry="56.5" fill="white"/>
</g>
<path d="M686.551 454V451.716L692.611 445.776C693.19 445.19 693.673 444.67 694.06 444.216C694.446 443.761 694.736 443.321 694.929 442.895C695.122 442.469 695.219 442.014 695.219 441.531C695.219 440.98 695.094 440.509 694.844 440.116C694.594 439.719 694.25 439.412 693.812 439.196C693.375 438.98 692.878 438.872 692.321 438.872C691.747 438.872 691.244 438.991 690.812 439.23C690.381 439.463 690.045 439.795 689.807 440.227C689.574 440.659 689.457 441.173 689.457 441.77H686.449C686.449 440.662 686.702 439.699 687.207 438.881C687.713 438.062 688.409 437.429 689.295 436.98C690.188 436.531 691.21 436.307 692.364 436.307C693.534 436.307 694.563 436.526 695.449 436.963C696.335 437.401 697.023 438 697.511 438.761C698.006 439.523 698.253 440.392 698.253 441.369C698.253 442.023 698.128 442.665 697.878 443.295C697.628 443.926 697.188 444.625 696.557 445.392C695.932 446.159 695.054 447.088 693.923 448.179L690.915 451.239V451.358H698.517V454H686.551ZM707.909 454.332C706.506 454.332 705.301 453.977 704.295 453.267C703.295 452.551 702.526 451.52 701.986 450.173C701.452 448.821 701.185 447.193 701.185 445.29C701.19 443.386 701.46 441.767 701.994 440.432C702.534 439.091 703.304 438.068 704.304 437.364C705.31 436.659 706.511 436.307 707.909 436.307C709.307 436.307 710.509 436.659 711.514 437.364C712.52 438.068 713.29 439.091 713.824 440.432C714.364 441.773 714.634 443.392 714.634 445.29C714.634 447.199 714.364 448.83 713.824 450.182C713.29 451.528 712.52 452.557 711.514 453.267C710.514 453.977 709.313 454.332 707.909 454.332ZM707.909 451.665C709 451.665 709.861 451.128 710.491 450.054C711.128 448.974 711.446 447.386 711.446 445.29C711.446 443.903 711.301 442.739 711.011 441.795C710.722 440.852 710.313 440.142 709.784 439.665C709.256 439.182 708.631 438.94 707.909 438.94C706.824 438.94 705.966 439.48 705.335 440.56C704.705 441.634 704.386 443.21 704.381 445.29C704.375 446.682 704.514 447.852 704.798 448.801C705.088 449.75 705.497 450.466 706.026 450.949C706.554 451.426 707.182 451.665 707.909 451.665ZM726.798 450.727V449.807C726.798 449.131 726.94 448.509 727.224 447.94C727.513 447.372 727.934 446.915 728.485 446.568C729.036 446.222 729.704 446.048 730.488 446.048C731.295 446.048 731.971 446.222 732.516 446.568C733.062 446.909 733.474 447.364 733.752 447.932C734.036 448.5 734.178 449.125 734.178 449.807V450.727C734.178 451.403 734.036 452.026 733.752 452.594C733.468 453.162 733.05 453.619 732.499 453.966C731.954 454.313 731.283 454.486 730.488 454.486C729.692 454.486 729.019 454.313 728.468 453.966C727.917 453.619 727.499 453.162 727.215 452.594C726.937 452.026 726.798 451.403 726.798 450.727ZM729.022 449.807V450.727C729.022 451.176 729.13 451.588 729.346 451.963C729.562 452.338 729.942 452.526 730.488 452.526C731.039 452.526 731.417 452.341 731.621 451.972C731.832 451.597 731.937 451.182 731.937 450.727V449.807C731.937 449.352 731.837 448.938 731.638 448.562C731.44 448.182 731.056 447.991 730.488 447.991C729.954 447.991 729.576 448.182 729.354 448.562C729.133 448.938 729.022 449.352 729.022 449.807ZM717.925 440.739V439.818C717.925 439.136 718.07 438.511 718.36 437.943C718.65 437.375 719.07 436.92 719.621 436.58C720.173 436.233 720.84 436.06 721.624 436.06C722.425 436.06 723.099 436.233 723.644 436.58C724.195 436.92 724.61 437.375 724.888 437.943C725.167 438.511 725.306 439.136 725.306 439.818V440.739C725.306 441.42 725.164 442.045 724.88 442.614C724.602 443.176 724.187 443.628 723.636 443.969C723.085 444.31 722.414 444.48 721.624 444.48C720.823 444.48 720.147 444.31 719.596 443.969C719.05 443.628 718.636 443.173 718.352 442.605C718.067 442.037 717.925 441.415 717.925 440.739ZM720.167 439.818V440.739C720.167 441.193 720.272 441.608 720.482 441.983C720.698 442.352 721.079 442.537 721.624 442.537C722.17 442.537 722.545 442.352 722.749 441.983C722.96 441.608 723.065 441.193 723.065 440.739V439.818C723.065 439.364 722.965 438.949 722.766 438.574C722.567 438.193 722.187 438.003 721.624 438.003C721.085 438.003 720.707 438.193 720.491 438.574C720.275 438.955 720.167 439.369 720.167 439.818ZM718.897 454L730.897 436.545H733.028L721.028 454H718.897Z" fill="black"/>
<defs>
<filter id="filter0_d_211_46" x="0" y="0" width="777" height="531" filterUnits="userSpaceOnUse" color-interpolation-filters="sRGB">
<feFlood flood-opacity="0" result="BackgroundImageFix"/>
<feColorMatrix in="SourceAlpha" type="matrix" values="0 0 0 0 0 0 0 0 0 0 0 0 0 0 0 0 0 0 127 0" result="hardAlpha"/>
<feMorphology radius="10" operator="erode" in="SourceAlpha" result="effect1_dropShadow_211_46"/>
<feOffset dy="12"/>
<feGaussianBlur stdDeviation="17"/>
<feComposite in2="hardAlpha" operator="out"/>
<feColorMatrix type="matrix" values="0 0 0 0 0.227451 0 0 0 0 0.301961 0 0 0 0 0.913725 0 0 0 0.15 0"/>
<feBlend mode="normal" in2="BackgroundImageFix" result="effect1_dropShadow_211_46"/>
<feBlend mode="normal" in="SourceGraphic" in2="effect1_dropShadow_211_46" result="shape"/>
</filter>
<filter id="filter1_d_211_46" x="19" y="568" width="722" height="500" filterUnits="userSpaceOnUse" color-interpolation-filters="sRGB">
<feFlood flood-opacity="0" result="BackgroundImageFix"/>
<feColorMatrix in="SourceAlpha" type="matrix" values="0 0 0 0 0 0 0 0 0 0 0 0 0 0 0 0 0 0 127 0" result="hardAlpha"/>
<feMorphology radius="10" operator="erode" in="SourceAlpha" result="effect1_dropShadow_211_46"/>
<feOffset dy="12"/>
<feGaussianBlur stdDeviation="17"/>
<feComposite in2="hardAlpha" operator="out"/>
<feColorMatrix type="matrix" values="0 0 0 0 0.227451 0 0 0 0 0.301961 0 0 0 0 0.913725 0 0 0 0.15 0"/>
<feBlend mode="normal" in2="BackgroundImageFix" result="effect1_dropShadow_211_46"/>
<feBlend mode="normal" in="SourceGraphic" in2="effect1_dropShadow_211_46" result="shape"/>
</filter>
<filter id="filter2_d_211_46" x="297" y="614" width="376" height="156" filterUnits="userSpaceOnUse" color-interpolation-filters="sRGB">
<feFlood flood-opacity="0" result="BackgroundImageFix"/>
<feColorMatrix in="SourceAlpha" type="matrix" values="0 0 0 0 0 0 0 0 0 0 0 0 0 0 0 0 0 0 127 0" result="hardAlpha"/>
<feMorphology radius="10" operator="erode" in="SourceAlpha" result="effect1_dropShadow_211_46"/>
<feOffset dy="12"/>
<feGaussianBlur stdDeviation="17"/>
<feComposite in2="hardAlpha" operator="out"/>
<feColorMatrix type="matrix" values="0 0 0 0 0.227451 0 0 0 0 0.301961 0 0 0 0 0.913725 0 0 0 0.15 0"/>
<feBlend mode="normal" in2="BackgroundImageFix" result="effect1_dropShadow_211_46"/>
<feBlend mode="normal" in="SourceGraphic" in2="effect1_dropShadow_211_46" result="shape"/>
</filter>
<filter id="filter3_d_211_46" x="844" y="378" width="224" height="222" filterUnits="userSpaceOnUse" color-interpolation-filters="sRGB">
<feFlood flood-opacity="0" result="BackgroundImageFix"/>
<feColorMatrix in="SourceAlpha" type="matrix" values="0 0 0 0 0 0 0 0 0 0 0 0 0 0 0 0 0 0 127 0" result="hardAlpha"/>
<feOffset dy="1"/>
<feGaussianBlur stdDeviation="27"/>
<feComposite in2="hardAlpha" operator="out"/>
<feColorMatrix type="matrix" values="0 0 0 0 0 0 0 0 0 0 0 0 0 0 0 0 0 0 0.1 0"/>
<feBlend mode="normal" in2="BackgroundImageFix" result="effect1_dropShadow_211_46"/>
<feBlend mode="normal" in="SourceGraphic" in2="effect1_dropShadow_211_46" result="shape"/>
</filter>
<filter id="filter4_d_211_46" x="598" y="646" width="224" height="222" filterUnits="userSpaceOnUse" color-interpolation-filters="sRGB">
<feFlood flood-opacity="0" result="BackgroundImageFix"/>
<feColorMatrix in="SourceAlpha" type="matrix" values="0 0 0 0 0 0 0 0 0 0 0 0 0 0 0 0 0 0 127 0" result="hardAlpha"/>
<feOffset dy="1"/>
<feGaussianBlur stdDeviation="27"/>
<feComposite in2="hardAlpha" operator="out"/>
<feColorMatrix type="matrix" values="0 0 0 0 0 0 0 0 0 0 0 0 0 0 0 0 0 0 0.1 0"/>
<feBlend mode="normal" in2="BackgroundImageFix" result="effect1_dropShadow_211_46"/>
<feBlend mode="normal" in="SourceGraphic" in2="effect1_dropShadow_211_46" result="shape"/>
</filter>
<filter id="filter5_d_211_46" x="598" y="337" width="224" height="221" filterUnits="userSpaceOnUse" color-interpolation-filters="sRGB">
<feFlood flood-opacity="0" result="BackgroundImageFix"/>
<feColorMatrix in="SourceAlpha" type="matrix" values="0 0 0 0 0 0 0 0 0 0 0 0 0 0 0 0 0 0 127 0" result="hardAlpha"/>
<feOffset dy="1"/>
<feGaussianBlur stdDeviation="27"/>
<feComposite in2="hardAlpha" operator="out"/>
<feColorMatrix type="matrix" values="0 0 0 0 0 0 0 0 0 0 0 0 0 0 0 0 0 0 0.1 0"/>
<feBlend mode="normal" in2="BackgroundImageFix" result="effect1_dropShadow_211_46"/>
<feBlend mode="normal" in="SourceGraphic" in2="effect1_dropShadow_211_46" result="shape"/>
</filter>
</defs>
</svg>
